<?xml version="1.0" standalone="no"?>
<!DOCTYPE svg PUBLIC "-//W3C//DTD SVG 20010904//EN"
 "http://www.w3.org/TR/2001/REC-SVG-20010904/DTD/svg10.dtd">
<svg version="1.0" xmlns="http://www.w3.org/2000/svg"
 width="692.000000pt" height="1080.000000pt" viewBox="0 0 692.000000 1080.000000"
 preserveAspectRatio="xMidYMid meet">

<g transform="translate(0.000000,1080.000000) scale(0.100000,-0.100000)"
fill="#000000" stroke="none">
<path d="M2370 10336 l0 -455 52 -68 c125 -166 317 -374 474 -515 645 -580
1388 -913 2259 -1014 279 -32 701 -23 1000 22 55 8 118 17 141 20 l41 6 7 -60
c120 -1060 33 -2090 -259 -3088 -194 -658 -518 -1386 -808 -1813 -572 -841
-1292 -1618 -2101 -2270 -181 -146 -440 -315 -731 -478 l-70 -39 -3 -292 -2
-292 72 36 c333 168 804 460 1027 638 746 594 1445 1320 2007 2086 266 363
378 543 548 880 433 857 704 1748 825 2710 72 573 80 1245 20 1830 -17 171
-97 770 -104 778 -1 2 -119 -24 -261 -57 -451 -105 -636 -126 -1017 -118 -145
3 -300 12 -365 21 -911 129 -1693 574 -2263 1289 -43 53 -169 232 -279 397
-110 165 -203 300 -205 300 -3 0 -5 -204 -5 -454z"/>
<path d="M2165 8664 c-204 -20 -279 -29 -400 -50 l-140 -25 -58 -57 c-235
-229 -454 -593 -571 -946 -59 -178 -124 -523 -114 -602 3 -23 58 3 1128 527
618 302 1126 552 1129 554 9 10 -9 15 -154 44 -187 37 -304 51 -508 59 l-161
7 338 214 c185 118 339 218 341 222 5 7 -71 20 -231 39 -83 11 -530 21 -599
14z"/>
<path d="M2148 6161 c-500 -124 -713 -182 -727 -195 -36 -33 -124 -177 -163
-269 -289 -667 53 -1431 743 -1661 316 -105 649 -79 949 75 242 124 423 311
546 564 256 529 97 1167 -380 1522 -67 50 -234 144 -252 142 -5 -1 -327 -80
-716 -178z m694 -443 c50 -15 123 -79 149 -130 92 -180 -62 -400 -260 -373
-60 8 -142 54 -176 99 -29 38 -55 112 -55 156 0 52 31 131 68 172 69 77 175
106 274 76z"/>
</g>
</svg>
